<svg width="20" height="13" viewBox="0 0 20 13" fill="none" xmlns="http://www.w3.org/2000/svg">
<path d="M0 13V11H10V13H0ZM0 8V6H5V8H0ZM0 3V1H5V3H0ZM18.6 13L14.75 9.15C14.35 9.43333 13.9127 9.646 13.438 9.788C12.9633 9.93 12.484 10.0007 12 10C10.6167 10 9.43767 9.51233 8.463 8.537C7.48833 7.56167 7.00067 6.38267 7 5C6.99933 3.61733 7.487 2.43833 8.463 1.463C9.439 0.487666 10.618 0 12 0C13.382 0 14.5613 0.487666 15.538 1.463C16.5147 2.43833 17.002 3.61733 17 5C17 5.48333 16.929 5.96267 16.787 6.438C16.645 6.91333 16.4327 7.35067 16.15 7.75L20 11.6L18.6 13ZM12 8C12.8333 8 13.5417 7.70833 14.125 7.125C14.7083 6.54167 15 5.83333 15 5C15 4.16667 14.7083 3.45833 14.125 2.875C13.5417 2.29167 12.8333 2 12 2C11.1667 2 10.4583 2.29167 9.875 2.875C9.29167 3.45833 9 4.16667 9 5C9 5.83333 9.29167 6.54167 9.875 7.125C10.4583 7.70833 11.1667 8 12 8Z" fill="black"/>
</svg>
