<svg width="32" height="32" viewBox="0 0 32 32" fill="none" xmlns="http://www.w3.org/2000/svg">
<path d="M16 10.6667C12.3636 10.6667 9.25818 12.9286 8 16.1213C9.25818 19.314 12.3636 21.5758 16 21.5758C19.6364 21.5758 22.7418 19.314 24 16.1213C22.7418 12.9286 19.6364 10.6667 16 10.6667ZM16 19.7577C13.9927 19.7577 12.3636 18.1286 12.3636 16.1213C12.3636 14.114 13.9927 12.4849 16 12.4849C18.0073 12.4849 19.6364 14.114 19.6364 16.1213C19.6364 18.1286 18.0073 19.7577 16 19.7577ZM16 13.9395C14.7927 13.9395 13.8182 14.914 13.8182 16.1213C13.8182 17.3286 14.7927 18.3031 16 18.3031C17.2073 18.3031 18.1818 17.3286 18.1818 16.1213C18.1818 14.914 17.2073 13.9395 16 13.9395Z" fill="#4D4D4D"/>
</svg>
